# Blender v2.79 (sub 0) OBJ File: ''
# www.blender.org
mtllib CylinderModel.mtl
o Cylinder
v 0.722630 -0.272450 -1.324436
v 0.722630 0.272450 -1.324436
v 0.919576 -0.272450 -0.675192
v 0.919576 0.272450 -0.675192
v 0.986077 -0.272450 -0.000000
v 0.986077 0.272450 -0.000000
v 0.919577 -0.272450 0.675191
v 0.919577 0.272450 0.675191
v 0.722630 -0.272450 1.324435
v 0.722630 0.272450 1.324435
v -0.822219 0.272450 -0.328727
v -0.822219 -0.272450 -0.328727
v -0.789842 0.272450 -0.000000
v -0.789842 -0.272450 -0.000000
v -0.918105 0.272450 -0.644821
v -0.918105 -0.272450 -0.644821
v -0.822219 0.272450 0.328727
v -0.822219 -0.272450 0.328727
v -0.918105 0.272450 0.644821
v -0.918105 -0.272450 0.644821
vn 0.9569 0.0000 -0.2903
vn 0.9952 0.0000 -0.0980
vn 0.9952 0.0000 0.0980
vn 0.9569 0.0000 0.2903
vn -0.9952 0.0000 -0.0980
vn -0.9569 0.0000 0.2903
vn -0.9952 0.0000 0.0980
vn -0.0000 1.0000 0.0000
vn -0.9569 0.0000 -0.2903
vn 0.0000 -1.0000 0.0000
vn -0.3827 0.0000 0.9239
vn -0.3827 0.0000 -0.9239
usemtl None
s off
f 1//1 2//1 4//1 3//1
f 3//2 4//2 6//2 5//2
f 5//3 6//3 8//3 7//3
f 7//4 8//4 10//4 9//4
f 18//5 17//5 13//5 14//5
f 12//6 11//6 15//6 16//6
f 14//7 13//7 11//7 12//7
f 6//8 13//8 17//8 8//8
f 20//9 19//9 17//9 18//9
f 9//10 20//10 18//10 7//10
f 7//10 18//10 14//10 5//10
f 5//10 14//10 12//10 3//10
f 4//8 11//8 13//8 6//8
f 2//8 15//8 11//8 4//8
f 3//10 12//10 16//10 1//10
f 8//8 17//8 19//8 10//8
f 9//11 10//11 19//11 20//11
f 1//12 16//12 15//12 2//12
