# Blender v2.79 (sub 0) OBJ File: ''
# www.blender.org
mtllib FiveSide.mtl
o Cylinder
v 0.944172 -0.293262 -2.503204
v 0.944172 0.293262 -2.503204
v 0.944171 -0.293262 2.503205
v 0.944171 0.293262 2.503205
v -0.944171 0.293262 1.131244
v -0.944171 -0.293262 1.131244
v -0.944171 0.293262 -1.131243
v -0.944171 -0.293262 -1.131243
vn 1.0000 0.0000 0.0000
vn 0.0000 -1.0000 0.0000
vn 0.0000 1.0000 -0.0000
vn -1.0000 0.0000 -0.0000
vn -0.5878 0.0000 -0.8090
vn -0.5878 0.0000 0.8090
usemtl None
s off
f 1//1 2//1 4//1 3//1
f 3//2 6//2 8//2 1//2
f 4//3 2//3 7//3 5//3
f 6//4 5//4 7//4 8//4
f 1//5 8//5 7//5 2//5
f 3//6 4//6 5//6 6//6
