# Blender v2.79 (sub 0) OBJ File: ''
# www.blender.org
mtllib FourSide.mtl
o Cube_Cube.001
v 0.948525 -0.281934 3.457924
v 0.948525 0.281934 3.457924
v 0.948525 -0.281934 -3.457924
v 0.948525 0.281934 -3.457924
v -0.948525 0.281934 1.560874
v -0.948525 -0.281934 1.560874
v -0.948525 0.281934 -1.560874
v -0.948525 -0.281934 -1.560874
vn -0.7071 0.0000 -0.7071
vn 1.0000 0.0000 0.0000
vn -1.0000 0.0000 0.0000
vn 0.0000 1.0000 0.0000
vn -0.7071 0.0000 0.7071
vn -0.0000 -1.0000 -0.0000
usemtl None
s off
f 3//1 8//1 7//1 4//1
f 3//2 4//2 2//2 1//2
f 6//3 5//3 7//3 8//3
f 5//4 2//4 4//4 7//4
f 6//5 1//5 2//5 5//5
f 6//6 8//6 3//6 1//6
