# Blender v2.79 (sub 0) OBJ File: ''
# www.blender.org
mtllib ThreeSide.mtl
o Cylinder
v 0.977607 -0.283177 6.012487
v 0.977607 0.283176 6.012487
v 0.977607 -0.283177 -6.012487
v 0.977607 0.283176 -6.012487
v -0.977607 0.283176 2.625957
v -0.977607 -0.283177 2.625957
v -0.977607 0.283176 -2.625957
v -0.977607 -0.283177 -2.625957
vn 0.0000 1.0000 0.0000
vn 1.0000 0.0000 0.0000
vn -0.8660 0.0000 0.5000
vn -0.8660 0.0000 -0.5000
vn 0.0000 -1.0000 0.0000
vn -1.0000 0.0000 0.0000
usemtl None
s off
f 7//1 5//1 2//1 4//1
f 3//2 4//2 2//2 1//2
f 2//3 5//3 6//3 1//3
f 8//4 7//4 4//4 3//4
f 8//5 3//5 1//5 6//5
f 6//6 5//6 7//6 8//6
